<svg width="146" height="146" viewBox="0 0 146 146" fill="none" xmlns="http://www.w3.org/2000/svg">
<g id="zondicons:add-outline" clip-path="url(#clip0_14_266)">
<path id="Vector" d="M80.3 65.7H109.5V80.3H80.3V109.5H65.7V80.3H36.5V65.7H65.7V36.5H80.3V65.7ZM73 146C53.6392 146 35.0714 138.309 21.3812 124.619C7.69105 110.929 0 92.3608 0 73C0 53.6392 7.69105 35.0714 21.3812 21.3812C35.0714 7.69105 53.6392 0 73 0C92.3608 0 110.929 7.69105 124.619 21.3812C138.309 35.0714 146 53.6392 146 73C146 92.3608 138.309 110.929 124.619 124.619C110.929 138.309 92.3608 146 73 146ZM73 131.4C88.4886 131.4 103.343 125.247 114.295 114.295C125.247 103.343 131.4 88.4886 131.4 73C131.4 57.5114 125.247 42.6571 114.295 31.705C103.343 20.7528 88.4886 14.6 73 14.6C57.5114 14.6 42.6571 20.7528 31.705 31.705C20.7528 42.6571 14.6 57.5114 14.6 73C14.6 88.4886 20.7528 103.343 31.705 114.295C42.6571 125.247 57.5114 131.4 73 131.4Z" fill="white"/>
</g>
<defs>
<clipPath id="clip0_14_266">
<rect width="146" height="146" fill="white"/>
</clipPath>
</defs>
</svg>
