<svg width="147" height="20" viewBox="0 0 147 20" fill="none" xmlns="http://www.w3.org/2000/svg">
<g clip-path="url(#clip0_19_23)">
<path d="M141.667 2C141.528 2.00081 141.393 2.04148 141.277 2.11715C141.161 2.19282 141.07 2.30028 141.013 2.42667L138.893 6.90667C138.846 7.01702 138.77 7.11314 138.675 7.1856C138.579 7.25806 138.466 7.30437 138.347 7.32L133.627 8C133.483 8.02308 133.349 8.08609 133.24 8.18183C133.131 8.27756 133.05 8.40214 133.009 8.5413C132.967 8.68046 132.965 8.82856 133.004 8.96864C133.042 9.10872 133.12 9.23511 133.227 9.33333L136.64 12.84C136.725 12.9265 136.789 13.032 136.826 13.1478C136.863 13.2637 136.873 13.3866 136.853 13.5067L136 18.44C135.976 18.5761 135.99 18.7162 136.04 18.8448C136.091 18.9734 136.176 19.0854 136.287 19.1683C136.398 19.2513 136.529 19.3019 136.667 19.3145C136.804 19.3272 136.943 19.3014 137.067 19.24L141.333 16.92C141.44 16.8626 141.559 16.8306 141.68 16.8267L141.667 2Z" stroke="#FFC107" stroke-linecap="round" stroke-linejoin="round"/>
</g>
<g clip-path="url(#clip1_19_23)">
<path d="M9.98667 1.45355L12.1067 5.73355C12.1549 5.84218 12.2307 5.93628 12.3267 6.00647C12.4226 6.07665 12.5352 6.12047 12.6533 6.13355L17.3333 6.82688C17.4688 6.8443 17.5966 6.89991 17.7017 6.98723C17.8068 7.07454 17.8848 7.18994 17.9268 7.31997C17.9687 7.44999 17.9728 7.58927 17.9386 7.72153C17.9043 7.85378 17.8331 7.97357 17.7333 8.06689L14.36 11.4136C14.2739 11.494 14.2093 11.5947 14.172 11.7065C14.1348 11.8182 14.1261 11.9375 14.1467 12.0536L14.96 16.7602C14.9836 16.8955 14.9687 17.0346 14.917 17.1618C14.8654 17.289 14.7791 17.3992 14.668 17.4797C14.5568 17.5603 14.4253 17.6081 14.2884 17.6176C14.1514 17.6271 14.0146 17.598 13.8933 17.5336L9.68 15.3069C9.57212 15.2539 9.45353 15.2264 9.33334 15.2264C9.21315 15.2264 9.09456 15.2539 8.98667 15.3069L4.77334 17.5336C4.65212 17.598 4.51525 17.6271 4.37831 17.6176C4.24136 17.6081 4.10983 17.5603 3.99869 17.4797C3.88755 17.3992 3.80126 17.289 3.74963 17.1618C3.69801 17.0346 3.68312 16.8955 3.70667 16.7602L4.52 12.0002C4.54062 11.8842 4.5319 11.7649 4.49464 11.6531C4.45738 11.5413 4.39276 11.4407 4.30667 11.3602L0.893337 8.06689C0.792354 7.97101 0.721337 7.84792 0.688889 7.7125C0.656441 7.57709 0.663955 7.43518 0.71052 7.30395C0.757084 7.17272 0.840702 7.05781 0.951245 6.97314C1.06179 6.88847 1.19451 6.83766 1.33334 6.82688L6.01334 6.13355C6.13147 6.12047 6.24411 6.07665 6.34002 6.00647C6.43594 5.93628 6.51179 5.84218 6.56 5.73355L8.68 1.45355C8.73774 1.3289 8.82993 1.22336 8.94569 1.1494C9.06145 1.07543 9.19596 1.03613 9.33334 1.03613C9.47071 1.03613 9.60522 1.07543 9.72099 1.1494C9.83675 1.22336 9.92894 1.3289 9.98667 1.45355Z" stroke="#FFC107" stroke-linecap="round" stroke-linejoin="round"/>
</g>
<g clip-path="url(#clip2_19_23)">
<path d="M41.9867 1.45355L44.1067 5.73355C44.1549 5.84218 44.2307 5.93628 44.3267 6.00647C44.4226 6.07665 44.5352 6.12047 44.6533 6.13355L49.3333 6.82688C49.4688 6.8443 49.5966 6.89991 49.7017 6.98723C49.8068 7.07454 49.8848 7.18994 49.9268 7.31997C49.9687 7.44999 49.9728 7.58927 49.9386 7.72153C49.9043 7.85378 49.8331 7.97357 49.7333 8.06689L46.36 11.4136C46.2739 11.494 46.2093 11.5947 46.172 11.7065C46.1348 11.8182 46.1261 11.9375 46.1467 12.0536L46.96 16.7602C46.9836 16.8955 46.9687 17.0346 46.917 17.1618C46.8654 17.289 46.7791 17.3992 46.668 17.4797C46.5568 17.5603 46.4253 17.6081 46.2884 17.6176C46.1514 17.6271 46.0146 17.598 45.8933 17.5336L41.68 15.3069C41.5721 15.2539 41.4535 15.2264 41.3333 15.2264C41.2131 15.2264 41.0946 15.2539 40.9867 15.3069L36.7733 17.5336C36.6521 17.598 36.5153 17.6271 36.3783 17.6176C36.2414 17.6081 36.1098 17.5603 35.9987 17.4797C35.8875 17.3992 35.8013 17.289 35.7496 17.1618C35.698 17.0346 35.6831 16.8955 35.7067 16.7602L36.52 12.0002C36.5406 11.8842 36.5319 11.7649 36.4946 11.6531C36.4574 11.5413 36.3928 11.4407 36.3067 11.3602L32.8933 8.06689C32.7924 7.97101 32.7213 7.84792 32.6889 7.7125C32.6564 7.57709 32.664 7.43518 32.7105 7.30395C32.7571 7.17272 32.8407 7.05781 32.9512 6.97314C33.0618 6.88847 33.1945 6.83766 33.3333 6.82688L38.0133 6.13355C38.1315 6.12047 38.2441 6.07665 38.34 6.00647C38.4359 5.93628 38.5118 5.84218 38.56 5.73355L40.68 1.45355C40.7377 1.3289 40.8299 1.22336 40.9457 1.1494C41.0615 1.07543 41.196 1.03613 41.3333 1.03613C41.4707 1.03613 41.6052 1.07543 41.721 1.1494C41.8367 1.22336 41.9289 1.3289 41.9867 1.45355Z" stroke="#FFC107" stroke-linecap="round" stroke-linejoin="round"/>
</g>
<g clip-path="url(#clip3_19_23)">
<path d="M73.9867 1.45355L76.1067 5.73355C76.1549 5.84218 76.2307 5.93628 76.3267 6.00647C76.4226 6.07665 76.5352 6.12047 76.6533 6.13355L81.3333 6.82688C81.4688 6.8443 81.5966 6.89991 81.7017 6.98723C81.8068 7.07454 81.8848 7.18994 81.9268 7.31997C81.9687 7.44999 81.9728 7.58927 81.9386 7.72153C81.9043 7.85378 81.8331 7.97357 81.7333 8.06689L78.36 11.4136C78.2739 11.494 78.2093 11.5947 78.172 11.7065C78.1348 11.8182 78.1261 11.9375 78.1467 12.0536L78.96 16.7602C78.9836 16.8955 78.9687 17.0346 78.917 17.1618C78.8654 17.289 78.7791 17.3992 78.668 17.4797C78.5568 17.5603 78.4253 17.6081 78.2884 17.6176C78.1514 17.6271 78.0146 17.598 77.8933 17.5336L73.68 15.3069C73.5721 15.2539 73.4535 15.2264 73.3333 15.2264C73.2131 15.2264 73.0946 15.2539 72.9867 15.3069L68.7733 17.5336C68.6521 17.598 68.5153 17.6271 68.3783 17.6176C68.2414 17.6081 68.1098 17.5603 67.9987 17.4797C67.8875 17.3992 67.8013 17.289 67.7496 17.1618C67.698 17.0346 67.6831 16.8955 67.7067 16.7602L68.52 12.0002C68.5406 11.8842 68.5319 11.7649 68.4946 11.6531C68.4574 11.5413 68.3928 11.4407 68.3067 11.3602L64.8933 8.06689C64.7924 7.97101 64.7213 7.84792 64.6889 7.7125C64.6564 7.57709 64.664 7.43518 64.7105 7.30395C64.7571 7.17272 64.8407 7.05781 64.9512 6.97314C65.0618 6.88847 65.1945 6.83766 65.3333 6.82688L70.0133 6.13355C70.1315 6.12047 70.2441 6.07665 70.34 6.00647C70.4359 5.93628 70.5118 5.84218 70.56 5.73355L72.68 1.45355C72.7377 1.3289 72.8299 1.22336 72.9457 1.1494C73.0615 1.07543 73.196 1.03613 73.3333 1.03613C73.4707 1.03613 73.6052 1.07543 73.721 1.1494C73.8367 1.22336 73.9289 1.3289 73.9867 1.45355Z" stroke="#FFC107" stroke-linecap="round" stroke-linejoin="round"/>
</g>
<g clip-path="url(#clip4_19_23)">
<rect width="18.6667" height="18.6667" transform="translate(96)" fill="white"/>
<path d="M105.987 1.45355L108.107 5.73355C108.155 5.84218 108.231 5.93628 108.327 6.00647C108.423 6.07665 108.535 6.12047 108.653 6.13355L113.333 6.82688C113.469 6.8443 113.597 6.89991 113.702 6.98723C113.807 7.07454 113.885 7.18994 113.927 7.31997C113.969 7.44999 113.973 7.58927 113.939 7.72153C113.904 7.85378 113.833 7.97357 113.733 8.06689L110.36 11.4136C110.274 11.494 110.209 11.5947 110.172 11.7065C110.135 11.8182 110.126 11.9375 110.147 12.0536L110.96 16.7602C110.984 16.8955 110.969 17.0346 110.917 17.1618C110.865 17.289 110.779 17.3992 110.668 17.4797C110.557 17.5603 110.425 17.6081 110.288 17.6176C110.151 17.6271 110.015 17.598 109.893 17.5336L105.68 15.3069C105.572 15.2539 105.454 15.2264 105.333 15.2264C105.213 15.2264 105.095 15.2539 104.987 15.3069L100.773 17.5336C100.652 17.598 100.515 17.6271 100.378 17.6176C100.241 17.6081 100.11 17.5603 99.9987 17.4797C99.8875 17.3992 99.8013 17.289 99.7496 17.1618C99.698 17.0346 99.6831 16.8955 99.7067 16.7602L100.52 12.0002C100.541 11.8842 100.532 11.7649 100.495 11.6531C100.457 11.5413 100.393 11.4407 100.307 11.3602L96.8933 8.06689C96.7924 7.97101 96.7213 7.84792 96.6889 7.7125C96.6564 7.57709 96.664 7.43518 96.7105 7.30395C96.7571 7.17272 96.8407 7.05781 96.9512 6.97314C97.0618 6.88847 97.1945 6.83766 97.3333 6.82688L102.013 6.13355C102.131 6.12047 102.244 6.07665 102.34 6.00647C102.436 5.93628 102.512 5.84218 102.56 5.73355L104.68 1.45355C104.738 1.3289 104.83 1.22336 104.946 1.1494C105.061 1.07543 105.196 1.03613 105.333 1.03613C105.471 1.03613 105.605 1.07543 105.721 1.1494C105.837 1.22336 105.929 1.3289 105.987 1.45355Z" stroke="#FFC107" stroke-linecap="round" stroke-linejoin="round"/>
</g>
<defs>
<clipPath id="clip0_19_23">
<rect width="18.6667" height="18.6667" fill="white" transform="translate(128 1.3335)"/>
</clipPath>
<clipPath id="clip1_19_23">
<rect width="18.6667" height="18.6667" fill="white"/>
</clipPath>
<clipPath id="clip2_19_23">
<rect width="18.6667" height="18.6667" fill="white" transform="translate(32)"/>
</clipPath>
<clipPath id="clip3_19_23">
<rect width="18.6667" height="18.6667" fill="white" transform="translate(64)"/>
</clipPath>
<clipPath id="clip4_19_23">
<rect width="18.6667" height="18.6667" fill="white" transform="translate(96)"/>
</clipPath>
</defs>
</svg>
