<svg width="25" height="24" viewBox="0 0 25 24" fill="none" xmlns="http://www.w3.org/2000/svg">
<g id="fluent-mdl2:date-time" clip-path="url(#clip0_14_112)">
<path id="Vector" d="M21.4904 11.6367C21.9591 11.957 22.3771 12.3203 22.7443 12.7266C23.1115 13.1328 23.4279 13.5781 23.6935 14.0625C23.9591 14.5469 24.1544 15.0586 24.2794 15.5977C24.4044 16.1367 24.4747 16.6875 24.4904 17.25C24.4904 18.1797 24.3146 19.0547 23.963 19.875C23.6115 20.6953 23.1271 21.4102 22.5099 22.0195C21.8927 22.6289 21.1779 23.1094 20.3654 23.4609C19.5529 23.8125 18.6779 23.9922 17.7404 24C17.0294 24 16.3419 23.8945 15.6779 23.6836C15.0138 23.4727 14.4044 23.168 13.8497 22.7695C13.295 22.3711 12.8029 21.8945 12.3732 21.3398C11.9435 20.7852 11.6115 20.1719 11.3771 19.5H1.99036V1.5H4.99036V0H6.49036V1.5H16.9904V0H18.4904V1.5H21.4904V11.6367ZM3.49036 3V6H19.9904V3H18.4904V4.5H16.9904V3H6.49036V4.5H4.99036V3H3.49036ZM11.0255 18C11.0021 17.7578 10.9904 17.5078 10.9904 17.25C10.9904 16.5781 11.0841 15.9258 11.2716 15.293C11.4591 14.6602 11.7443 14.0625 12.1271 13.5H10.9904V12H12.4904V13.0078C12.8107 12.6094 13.1661 12.2578 13.5568 11.9531C13.9474 11.6484 14.3693 11.3867 14.8224 11.168C15.2755 10.9492 15.7482 10.7852 16.2404 10.6758C16.7325 10.5664 17.2325 10.5078 17.7404 10.5C18.5216 10.5 19.2716 10.6289 19.9904 10.8867V7.5H3.49036V18H11.0255ZM17.7404 22.5C18.4669 22.5 19.1466 22.3633 19.7794 22.0898C20.4122 21.8164 20.9669 21.4414 21.4435 20.9648C21.92 20.4883 22.295 19.9336 22.5685 19.3008C22.8419 18.668 22.9825 17.9844 22.9904 17.25C22.9904 16.5234 22.8536 15.8438 22.5802 15.2109C22.3068 14.5781 21.9318 14.0234 21.4552 13.5469C20.9786 13.0703 20.424 12.6953 19.7911 12.4219C19.1583 12.1484 18.4747 12.0078 17.7404 12C17.0138 12 16.3341 12.1367 15.7013 12.4102C15.0685 12.6836 14.5138 13.0586 14.0372 13.5352C13.5607 14.0117 13.1857 14.5664 12.9122 15.1992C12.6388 15.832 12.4982 16.5156 12.4904 17.25C12.4904 17.9766 12.6271 18.6562 12.9005 19.2891C13.174 19.9219 13.549 20.4766 14.0255 20.9531C14.5021 21.4297 15.0568 21.8047 15.6896 22.0781C16.3224 22.3516 17.006 22.4922 17.7404 22.5ZM18.4904 16.5H20.7404V18H16.9904V13.5H18.4904V16.5ZM4.99036 12H6.49036V13.5H4.99036V12ZM7.99036 12H9.49036V13.5H7.99036V12ZM7.99036 9H9.49036V10.5H7.99036V9ZM4.99036 15H6.49036V16.5H4.99036V15ZM7.99036 15H9.49036V16.5H7.99036V15ZM12.4904 10.5H10.9904V9H12.4904V10.5ZM15.4904 10.5H13.9904V9H15.4904V10.5ZM18.4904 10.5H16.9904V9H18.4904V10.5Z" fill="#007BFF"/>
</g>
<defs>
<clipPath id="clip0_14_112">
<rect width="24" height="24" fill="white" transform="translate(0.490356)"/>
</clipPath>
</defs>
</svg>
