<svg width="30" height="24" viewBox="0 0 30 24" fill="none" xmlns="http://www.w3.org/2000/svg">
<g id="fa-solid:user-friends" clip-path="url(#clip0_14_124)">
<path id="Vector" d="M9.22055 12C12.0351 12 14.3132 9.65156 14.3132 6.75C14.3132 3.84844 12.0351 1.5 9.22055 1.5C6.40597 1.5 4.12794 3.84844 4.12794 6.75C4.12794 9.65156 6.40597 12 9.22055 12ZM12.7126 13.5H12.3352C11.3895 13.9688 10.3391 14.25 9.22055 14.25C8.10199 14.25 7.05619 13.9688 6.10587 13.5H5.72847C2.8366 13.5 0.490356 15.9188 0.490356 18.9V20.25C0.490356 21.4922 1.46796 22.5 2.6729 22.5H15.7682C16.9731 22.5 17.9507 21.4922 17.9507 20.25V18.9C17.9507 15.9188 15.6045 13.5 12.7126 13.5ZM22.3158 12C24.7257 12 26.6809 9.98438 26.6809 7.5C26.6809 5.01562 24.7257 3 22.3158 3C19.9059 3 17.9507 5.01562 17.9507 7.5C17.9507 9.98438 19.9059 12 22.3158 12ZM24.4984 13.5H24.3256C23.6936 13.725 23.0252 13.875 22.3158 13.875C21.6065 13.875 20.9381 13.725 20.3061 13.5H20.1333C19.2057 13.5 18.3509 13.7766 17.6006 14.2219C18.7101 15.4547 19.4058 17.0906 19.4058 18.9V20.7C19.4058 20.8031 19.383 20.9016 19.3785 21H27.4085C28.6134 21 29.591 19.9922 29.591 18.75C29.591 15.8484 27.313 13.5 24.4984 13.5Z" fill="#007BFF"/>
</g>
<defs>
<clipPath id="clip0_14_124">
<rect width="29.1006" height="24" fill="white" transform="translate(0.490356)"/>
</clipPath>
</defs>
</svg>
