<svg width="25" height="25" viewBox="0 0 25 25" fill="none" xmlns="http://www.w3.org/2000/svg">
<g clip-path="url(#clip0_19_75)">
<path d="M22.3216 8.45312V17.9181C22.3216 18.6833 22.0293 19.4196 21.5043 19.9764C20.9793 20.5331 20.2615 20.8682 19.4976 20.9131L19.3216 20.9181H5.32159C4.55638 20.9182 3.82008 20.6258 3.26333 20.1008C2.70659 19.5759 2.37149 18.858 2.32659 18.0941L2.32159 17.9181V8.45312L11.7666 14.7501L11.8826 14.8161C12.0193 14.8829 12.1694 14.9176 12.3216 14.9176C12.4737 14.9176 12.6239 14.8829 12.7606 14.8161L12.8766 14.7501L22.3216 8.45312Z" fill="black"/>
<path d="M19.3216 4.91797C20.4016 4.91797 21.3486 5.48797 21.8766 6.34497L12.3216 12.715L2.7666 6.34497C3.01733 5.93774 3.36181 5.59637 3.77131 5.34935C4.1808 5.10233 4.64343 4.95682 5.1206 4.92497L5.3216 4.91797H19.3216Z" fill="black"/>
</g>
<defs>
<clipPath id="clip0_19_75">
<rect width="24" height="24" fill="white" transform="translate(0.321594 0.917969)"/>
</clipPath>
</defs>
</svg>
